<svg xmlns="http://www.w3.org/2000/svg" width="1em" height="1em" viewBox="0 0 24 24" fill="none" class="w-4 h-4"><title>Claude</title><g clip-path="url(#clip0_2016_302)"><path fill="currentColor" d="m4.715 15.956 4.717-2.648.079-.23-.079-.128h-.23l-.79-.048-2.696-.073-2.337-.097-2.265-.122-.57-.121-.535-.705.055-.352.48-.322.686.061 1.517.104 2.277.157 1.652.098 2.446.255h.389l.055-.158-.134-.098-.103-.097-2.356-1.596-2.55-1.688-1.335-.972-.723-.492-.364-.46-.158-1.009.656-.722.88.06.225.061.892.686 1.906 1.476 2.49 1.833.364.304.146-.104.018-.072-.164-.274-1.354-2.446-1.445-2.49-.643-1.032-.17-.619a3 3 0 0 1-.104-.728L6.287.133 6.7 0l.996.134.419.364.619 1.415L9.736 4.14l1.554 3.03.455.898.243.832.091.255h.158V9.01l.127-1.706.237-2.095.231-2.695.079-.76.376-.91.747-.492.583.28.48.685-.067.444-.285 1.851-.56 2.903-.363 1.942h.212l.243-.243.984-1.305 1.65-2.064.73-.82.85-.904.546-.431h1.032l.759 1.129-.34 1.166-1.062 1.347-.88 1.142-1.264 1.7-.789 1.36.073.11.188-.02 2.854-.606 1.542-.28 1.84-.315.831.388.091.395-.328.807-1.967.486-2.307.461-3.436.814-.043.03.049.061 1.548.146.662.036h1.62l3.018.225.79.522.473.638-.079.485-1.214.62-1.64-.389-3.824-.91-1.312-.329h-.182v.11l1.093 1.068 2.004 1.81 2.507 2.33.127.578-.321.455-.34-.049-2.204-1.657-.85-.747-1.925-1.62h-.127v.17l.443.649 2.344 3.521.12 1.08-.17.353-.606.212-.668-.12-1.372-1.925-1.415-2.168-1.141-1.943-.14.08-.674 7.254-.316.37-.728.28-.607-.461-.322-.747.322-1.476.388-1.924.316-1.53.285-1.9.17-.632-.012-.042-.14.018-1.432 1.967-2.18 2.945-1.724 1.845-.413.164-.716-.37.066-.662.401-.589L8.17 17.57l1.44-1.882.928-1.086-.006-.158h-.055L4.138 18.56l-1.13.146-.485-.456.06-.746.231-.243 1.907-1.312z"></path></g><defs><clipPath id="clip0_2016_302"><path fill="#fff" d="M0 0h24v24H0z"></path></clipPath></defs></svg>