<svg xmlns="http://www.w3.org/2000/svg" height="1024" preserveAspectRatio="none" style="display: block;" version="1.1"
    viewBox="0 0 2048 2048" width="1024">
    <path
        d="M 1004.09 730.483 C 1166.37 719.37 1306.88 842.039 1317.77 1004.33 C 1328.66 1166.63 1205.79 1306.97 1043.48 1317.63 C 881.488 1328.28 741.483 1205.71 730.616 1043.73 C 719.748 881.749 842.125 741.575 1004.09 730.483 z"
        fill="#000000" transform="translate(0,0)"></path>
    <path
        d="M 1010.66 816.169 C 1125.95 808.441 1225.59 895.811 1233 1011.12 C 1240.4 1126.43 1152.76 1225.82 1037.43 1232.91 C 922.556 1239.96 823.635 1152.74 816.259 1037.88 C 808.882 923.032 895.832 823.867 1010.66 816.169 z"
        fill="rgb(255,255,255)" transform="translate(0,0)"></path>
    <path
        d="M 1016.55 883.041 C 1094.48 878.442 1161.35 938.001 1165.75 1015.95 C 1170.16 1093.9 1110.43 1160.61 1032.47 1164.83 C 954.786 1169.03 888.355 1109.56 883.964 1031.88 C 879.573 954.201 938.879 887.623 1016.55 883.041 z"
        fill="rgb(7,6,6)" transform="translate(0,0)"></path>
    <path
        d="M 1000.41 282.438 C 1061.17 278.557 1143.24 288.731 1201.98 302.997 C 1344.32 338.4 1473.2 414.671 1572.73 522.412 C 1603.99 555.647 1635.1 594.679 1658.85 633.697 C 1723.89 738.198 1760.61 857.83 1765.39 980.826 C 1766.1 998.872 1766.8 1030.04 1763.99 1047.82 C 1762.48 1057.42 1744.89 1084.1 1738.79 1093.25 C 1678.69 1183.44 1588.21 1262.44 1494.9 1316.43 C 1371.88 1387.59 1221.41 1435.85 1078.34 1434.94 C 1023.29 1434.59 966.506 1425.16 913.516 1410.43 C 807.04 1380.84 702.216 1322.51 627.271 1240.4 C 611.901 1223.56 597.493 1206.41 586.128 1186.72 C 674.629 1278.03 787.211 1333.47 910.21 1362.97 C 1063.34 1396.48 1210.9 1368.79 1347.2 1292.15 C 1488.6 1208.81 1620.41 1066.63 1667.11 907.237 C 1701.06 791.383 1654.06 697.072 1571.27 619.99 C 1467.26 523.152 1335.31 456.735 1198.8 419.668 C 956.131 355.779 698.036 390.602 480.977 516.518 C 481.91 515.435 482.863 514.369 483.833 513.32 C 616.685 369.508 805.91 289.911 1000.41 282.438 z"
        fill="#ffffff" transform="translate(0,0)"></path>
    <path
        d="M 1561.88 1539.95 C 1537.21 1565.58 1510.76 1589.43 1482.73 1611.35 C 1327.84 1731.57 1131.79 1785.86 937.117 1762.45 C 735.108 1738.75 556.749 1633 431.54 1473.86 C 343.419 1360.7 291.686 1223.48 283.172 1080.3 C 281.929 1056.77 281.289 1030.36 283.258 1006.83 C 284.348 993.809 298.255 973.943 305.546 962.418 C 348.255 894.909 408.755 836.07 472.342 787.807 C 630.426 667.822 851.097 592.619 1050.07 619.867 C 1173.16 636.724 1306 695.037 1396.63 781.288 C 1425.93 809.174 1440.81 830.844 1464.64 861.886 L 1463.07 863.258 C 1451.08 846.885 1427.14 825.918 1410.95 813.196 C 1322.36 744.208 1203.23 693.84 1092.77 676.137 C 934.668 650.798 756.387 706.462 629.959 802.93 C 478.149 918.766 277.452 1176.99 421.718 1368.37 C 445.627 1400.09 484.221 1435.66 515.387 1460.58 C 643.05 1562.22 795.198 1628.49 956.565 1652.75 C 1164.65 1681.89 1376.54 1641.8 1559.59 1538.66 L 1561.88 1539.95 z"
        fill="#ffffff" transform="translate(0,0)"></path>
    <path
        d="M 491.748 1030.76 C 492.467 1035.49 491.783 1053.24 491.865 1059.01 C 492.055 1072.37 493.216 1083.67 495.211 1096.99 C 511.588 1206.33 592.569 1296.89 680.099 1359.43 C 784.869 1434.29 923.627 1481.13 1052.13 1488.66 C 1103.9 1491.7 1156.22 1487.55 1207.2 1479.37 C 1393.46 1449.02 1565.35 1360.55 1698.3 1226.61 C 1715.42 1209.12 1743.19 1179.87 1757.36 1160.28 C 1747.9 1207.62 1733.63 1253.88 1714.77 1298.33 C 1702.49 1326.67 1690.27 1352.16 1674.6 1378.78 C 1662.26 1399.74 1645.27 1414.65 1626.37 1429.79 C 1540.9 1498.24 1428.49 1549.27 1323.3 1576.43 C 1093.71 1637 845.431 1606.81 641.592 1482.83 C 565.401 1436.49 455.855 1358.47 432.795 1266.46 C 411.447 1181.28 448.802 1102.28 491.748 1030.76 z"
        fill="#ffffff" transform="translate(0,0)"></path>
    <path
        d="M 930.893 441.43 C 950.712 439.784 987.886 440.852 1007.92 441.967 C 1152.87 450.862 1293.44 495.099 1417.37 570.817 C 1473.73 605.714 1529.1 648.622 1572.17 699.462 C 1656.29 798.754 1621.43 914.912 1559.35 1014.52 C 1558.72 941.674 1544.46 887.455 1504.56 825.064 C 1431.42 710.695 1301.94 634.083 1175.49 592.217 C 1152.25 584.52 1126.52 578.476 1102.77 573.126 C 1039.51 560.504 974.826 556.533 910.495 561.321 C 711.59 575.41 522.286 664.654 375.345 798.276 C 345.809 825.135 319.712 854.347 293.592 884.433 C 307.815 816.897 331.413 751.681 363.701 690.682 C 371.012 677.076 378.157 663.174 388.529 651.592 C 468.066 562.779 651.153 489.59 766.423 463.393 C 820.635 451.072 875.454 444.557 930.893 441.43 z"
        fill="#ffffff" transform="translate(0,0)"></path>
    <path d="M 1559.59 1538.66 C 1563.23 1536.62 1567.77 1534.28 1561.88 1539.95 L 1559.59 1538.66 z" fill="#ffffff"
        transform="translate(0,0)"></path>
    <path d="M 1464.64 861.886 C 1467.81 865.705 1467.48 867.811 1463.07 863.258 L 1464.64 861.886 z" fill="#fefefe"
        transform="translate(0,0)"></path>
    <metadata>
        <recraft-signature>{"signed_by": "recraft", "signature_b64":
            "oXgA4g6DthicCtXxin5U9LsVBtJBvK29VQAu20nYGtAZDmRd+571cOEJAEHfK0onWFYq+V5DtUtKfjVvCBmDBw==", "signing_algo":
            "Ed25519", "generation_timestamp": 1779782428, "identifier": "bbc258d0-790c-4758-b630-ba6714df608f"}
        </recraft-signature>
    </metadata>
</svg>